<svg preserveAspectRatio="none" overflow="visible" style="display: block;" width="16" height="16" viewBox="0 0 16 16" fill="none" xmlns="http://www.w3.org/2000/svg">
<g id="Group">
<path id="Vector" d="M14.8147 0.00119305H1.18066C0.536287 -0.00607883 0.00786419 0.510087 0 1.15446V14.8453C0.00759494 15.49 0.535975 16.0067 1.18066 15.9999H14.8147C15.4606 16.0079 15.9911 15.4913 16 14.8453V1.15348C15.9908 0.507826 15.4603 -0.00831011 14.8147 0.000101367" fill="#1570EF"/>
<g id="Vector_2">
<path d="M11.2621 13.633H13.6328L13.6337 9.44469C13.6337 7.38855 13.1907 5.80805 10.7879 5.80805C9.86935 5.77396 9.00648 6.24786 8.54242 7.04134H8.51056V5.99796H6.23469V13.6328H8.60539V9.85586C8.60539 8.8599 8.79431 7.8953 10.029 7.8953C11.2463 7.8953 11.2621 9.03499 11.2621 9.92032V13.633Z" fill="white"/>
<path d="M2.18376 3.57881C2.18389 4.33863 2.79995 4.95447 3.55975 4.95434C3.92462 4.95427 4.27452 4.80926 4.53248 4.5512C4.79043 4.29315 4.93532 3.94319 4.93525 3.57831C4.93511 2.81849 4.31906 2.20265 3.55926 2.20278C2.79945 2.20292 2.18362 2.81898 2.18376 3.57881Z" fill="white"/>
<path d="M2.37193 13.633H4.7451V5.99796H2.37193V13.633Z" fill="white"/>
</g>
</g>
</svg>
